<svg xmlns="http://www.w3.org/2000/svg" xmlns:xlink="http://www.w3.org/1999/xlink" version="1.1" x="0px" y="0px" viewBox="0 0 100 100" enable-background="new 0 0 100 100" xml:space="preserve"><path fill="#000000" d="M75.44,56.949H52.752v-1.686H75.44V56.949z M52.752,65.054H75.44v-1.685H52.752V65.054z M75.44,59.316  H52.752v1.686H75.44V59.316z M55.122,40.284H44.306V23.76h10.816V40.284z M53.438,38.599V25.445H45.99v13.153H53.438z   M42.153,64.711V52.296H26.081v12.415h1.685V53.981h12.702v10.729H42.153z M57.205,32.892v1.685H79.12v39.979H20.879V34.576h21.344  v-1.685H19.194V76.24h61.611V32.892H57.205z M75.44,51.213H52.752v1.685H75.44V51.213z M34.117,52.166  c-2.911,0-5.278-2.367-5.278-5.277s2.368-5.278,5.278-5.278s5.278,2.368,5.278,5.278S37.028,52.166,34.117,52.166z M37.947,46.889  c0-2.112-1.718-3.831-3.829-3.831c-2.112,0-3.83,1.719-3.83,3.831c0,2.111,1.718,3.829,3.83,3.829  C36.229,50.718,37.947,49,37.947,46.889z M75.44,47.16H52.752v1.685H75.44V47.16z"></path></svg>